{
	"asset":{
		"generator":"Khronos glTF Blender I/O v4.5.47",
		"version":"2.0"
	},
	"extensionsUsed":[
		"KHR_materials_unlit",
		"KHR_materials_transmission"
	],
	"scene":0,
	"scenes":[
		{
			"name":"Scene",
			"nodes":[
				2,
				11
			]
		}
	],
	"nodes":[
		{
			"mesh":0,
			"name":"Object_2"
		},
		{
			"children":[
				0
			],
			"name":"Phantom_Patient.obj.cleaner.materialmerger.gles"
		},
		{
			"children":[
				1
			],
			"name":"Sketchfab_model",
			"rotation":[
				-0.665213406085968,
				0.23977316915988922,
				0.2397731989622116,
				0.6652132868766785
			]
		},
		{
			"mesh":1,
			"name":"Object_4"
		},
		{
			"children":[
				3
			],
			"name":"mouth_0"
		},
		{
			"mesh":2,
			"name":"Object_6"
		},
		{
			"children":[
				5
			],
			"name":"teeth_1"
		},
		{
			"mesh":3,
			"name":"Object_8"
		},
		{
			"children":[
				7
			],
			"name":"wet_2"
		},
		{
			"children":[
				4,
				6,
				8
			],
			"name":"GLTF_SceneRootNode",
			"rotation":[
				0.70710688829422,
				0,
				0,
				0.7071066498756409
			]
		},
		{
			"children":[
				9
			],
			"name":"root"
		},
		{
			"children":[
				10
			],
			"name":"Sketchfab_model.001",
			"rotation":[
				0.9765474200248718,
				-0.059164874255657196,
				0.00933663547039032,
				0.20680315792560577
			],
			"scale":[
				2.3236751556396484,
				2.3236753940582275,
				2.3236753940582275
			],
			"translation":[
				0.11402855813503265,
				1.3278234004974365,
				-0.18462896347045898
			]
		}
	],
	"materials":[
		{
			"doubleSided":true,
			"extensions":{
				"KHR_materials_unlit":{}
			},
			"name":"Phantom_Patient_Cleaned_Retextured_u1_v1",
			"pbrMetallicRoughness":{
				"baseColorTexture":{
					"index":0
				},
				"metallicFactor":0,
				"roughnessFactor":0.9
			}
		},
		{
			"doubleSided":true,
			"name":"mouth",
			"normalTexture":{
				"index":1
			},
			"pbrMetallicRoughness":{
				"baseColorTexture":{
					"index":2
				},
				"metallicFactor":0,
				"metallicRoughnessTexture":{
					"index":3
				}
			}
		},
		{
			"doubleSided":true,
			"name":"teeth",
			"normalTexture":{
				"index":4
			},
			"pbrMetallicRoughness":{
				"baseColorTexture":{
					"index":5
				},
				"metallicFactor":0,
				"metallicRoughnessTexture":{
					"index":6
				}
			}
		},
		{
			"alphaMode":"BLEND",
			"doubleSided":true,
			"extensions":{
				"KHR_materials_transmission":{
					"transmissionFactor":1
				}
			},
			"name":"material",
			"pbrMetallicRoughness":{
				"baseColorFactor":[
					1,
					1,
					1,
					0.25
				],
				"metallicFactor":0,
				"roughnessFactor":0
			}
		}
	],
	"meshes":[
		{
			"name":"Object_0",
			"primitives":[
				{
					"attributes":{
						"POSITION":0,
						"NORMAL":1,
						"TEXCOORD_0":2
					},
					"indices":3,
					"material":0
				}
			]
		},
		{
			"name":"Object_0.001",
			"primitives":[
				{
					"attributes":{
						"POSITION":4,
						"NORMAL":5,
						"TEXCOORD_0":6
					},
					"indices":7,
					"material":1
				}
			]
		},
		{
			"name":"Object_1.001",
			"primitives":[
				{
					"attributes":{
						"POSITION":8,
						"NORMAL":9,
						"TEXCOORD_0":10
					},
					"indices":11,
					"material":2
				}
			]
		},
		{
			"name":"Object_2",
			"primitives":[
				{
					"attributes":{
						"POSITION":12,
						"NORMAL":13,
						"TEXCOORD_0":14
					},
					"indices":15,
					"material":3
				}
			]
		}
	],
	"textures":[
		{
			"sampler":0,
			"source":0
		},
		{
			"sampler":0,
			"source":1
		},
		{
			"sampler":0,
			"source":2
		},
		{
			"sampler":0,
			"source":3
		},
		{
			"sampler":0,
			"source":4
		},
		{
			"sampler":0,
			"source":5
		},
		{
			"sampler":0,
			"source":6
		}
	],
	"images":[
		{
			"mimeType":"image/jpeg",
			"name":"Phantom_Patient_Cleaned_Retextured_u1_v1_baseColor",
			"uri":"Phantom_Patient_Cleaned_Retextured_u1_v1_baseColor.jpg"
		},
		{
			"mimeType":"image/png",
			"name":"mouth_normal",
			"uri":"mouth_normal.png"
		},
		{
			"mimeType":"image/png",
			"name":"mouth_baseColor",
			"uri":"mouth_baseColor.png"
		},
		{
			"mimeType":"image/png",
			"name":"mouth_metallicRoughness",
			"uri":"mouth_metallicRoughness.png"
		},
		{
			"mimeType":"image/png",
			"name":"teeth_normal",
			"uri":"teeth_normal.png"
		},
		{
			"mimeType":"image/png",
			"name":"teeth_baseColor",
			"uri":"teeth_baseColor.png"
		},
		{
			"mimeType":"image/png",
			"name":"teeth_metallicRoughness",
			"uri":"teeth_metallicRoughness.png"
		}
	],
	"accessors":[
		{
			"bufferView":0,
			"componentType":5126,
			"count":50080,
			"max":[
				0.6498749852180481,
				0.6287317872047424,
				1.4283826351165771
			],
			"min":[
				-1.0863579511642456,
				-1.2886759042739868,
				0.029667995870113373
			],
			"type":"VEC3"
		},
		{
			"bufferView":1,
			"componentType":5126,
			"count":50080,
			"type":"VEC3"
		},
		{
			"bufferView":2,
			"componentType":5126,
			"count":50080,
			"type":"VEC2"
		},
		{
			"bufferView":3,
			"componentType":5123,
			"count":51027,
			"type":"SCALAR"
		},
		{
			"bufferView":4,
			"componentType":5126,
			"count":2432,
			"max":[
				0.05234730616211891,
				0.03399186208844185,
				0.05007603019475937
			],
			"min":[
				-0.05234730616211891,
				-0.08060351014137268,
				-0.07003773748874664
			],
			"type":"VEC3"
		},
		{
			"bufferView":5,
			"componentType":5126,
			"count":2432,
			"type":"VEC3"
		},
		{
			"bufferView":6,
			"componentType":5126,
			"count":2432,
			"type":"VEC2"
		},
		{
			"bufferView":7,
			"componentType":5123,
			"count":12330,
			"type":"SCALAR"
		},
		{
			"bufferView":8,
			"componentType":5126,
			"count":23336,
			"max":[
				0.03477165475487709,
				0.03142234683036804,
				0.050519589334726334
			],
			"min":[
				-0.03411963954567909,
				-0.057049382477998734,
				-0.027697693556547165
			],
			"type":"VEC3"
		},
		{
			"bufferView":9,
			"componentType":5126,
			"count":23336,
			"type":"VEC3"
		},
		{
			"bufferView":10,
			"componentType":5126,
			"count":23336,
			"type":"VEC2"
		},
		{
			"bufferView":11,
			"componentType":5123,
			"count":122370,
			"type":"SCALAR"
		},
		{
			"bufferView":12,
			"componentType":5126,
			"count":568,
			"max":[
				0.034653231501579285,
				0.014109156094491482,
				0.04999799281358719
			],
			"min":[
				-0.034653231501579285,
				-0.04030648618936539,
				-0.0207523163408041
			],
			"type":"VEC3"
		},
		{
			"bufferView":13,
			"componentType":5126,
			"count":568,
			"type":"VEC3"
		},
		{
			"bufferView":14,
			"componentType":5126,
			"count":568,
			"type":"VEC2"
		},
		{
			"bufferView":15,
			"componentType":5123,
			"count":2244,
			"type":"SCALAR"
		}
	],
	"bufferViews":[
		{
			"buffer":0,
			"byteLength":600960,
			"byteOffset":0,
			"target":34962
		},
		{
			"buffer":0,
			"byteLength":600960,
			"byteOffset":600960,
			"target":34962
		},
		{
			"buffer":0,
			"byteLength":400640,
			"byteOffset":1201920,
			"target":34962
		},
		{
			"buffer":0,
			"byteLength":102054,
			"byteOffset":1602560,
			"target":34963
		},
		{
			"buffer":0,
			"byteLength":29184,
			"byteOffset":1704616,
			"target":34962
		},
		{
			"buffer":0,
			"byteLength":29184,
			"byteOffset":1733800,
			"target":34962
		},
		{
			"buffer":0,
			"byteLength":19456,
			"byteOffset":1762984,
			"target":34962
		},
		{
			"buffer":0,
			"byteLength":24660,
			"byteOffset":1782440,
			"target":34963
		},
		{
			"buffer":0,
			"byteLength":280032,
			"byteOffset":1807100,
			"target":34962
		},
		{
			"buffer":0,
			"byteLength":280032,
			"byteOffset":2087132,
			"target":34962
		},
		{
			"buffer":0,
			"byteLength":186688,
			"byteOffset":2367164,
			"target":34962
		},
		{
			"buffer":0,
			"byteLength":244740,
			"byteOffset":2553852,
			"target":34963
		},
		{
			"buffer":0,
			"byteLength":6816,
			"byteOffset":2798592,
			"target":34962
		},
		{
			"buffer":0,
			"byteLength":6816,
			"byteOffset":2805408,
			"target":34962
		},
		{
			"buffer":0,
			"byteLength":4544,
			"byteOffset":2812224,
			"target":34962
		},
		{
			"buffer":0,
			"byteLength":4488,
			"byteOffset":2816768,
			"target":34963
		}
	],
	"samplers":[
		{
			"magFilter":9729,
			"minFilter":9987
		}
	],
	"buffers":[
		{
			"byteLength":2821256,
			"uri":"PatientCover.bin"
		}
	]
}
