{
	"asset":{
		"generator":"Khronos glTF Blender I/O v4.5.47",
		"version":"2.0"
	},
	"extensionsUsed":[
		"KHR_materials_unlit"
	],
	"scene":0,
	"scenes":[
		{
			"name":"Scene",
			"nodes":[
				2
			]
		}
	],
	"nodes":[
		{
			"mesh":0,
			"name":"Object_2"
		},
		{
			"children":[
				0
			],
			"name":"Phantom_Patient.obj.cleaner.materialmerger.gles"
		},
		{
			"children":[
				1
			],
			"name":"Sketchfab_model",
			"rotation":[
				-0.665213406085968,
				0.23977316915988922,
				0.2397731989622116,
				0.6652132868766785
			]
		}
	],
	"materials":[
		{
			"doubleSided":true,
			"extensions":{
				"KHR_materials_unlit":{}
			},
			"name":"Phantom_Patient_Cleaned_Retextured_u1_v1",
			"pbrMetallicRoughness":{
				"baseColorTexture":{
					"index":0
				},
				"metallicFactor":0,
				"roughnessFactor":0.9
			}
		}
	],
	"meshes":[
		{
			"name":"Object_0",
			"primitives":[
				{
					"attributes":{
						"POSITION":0,
						"NORMAL":1,
						"TEXCOORD_0":2
					},
					"indices":3,
					"material":0
				}
			]
		}
	],
	"textures":[
		{
			"sampler":0,
			"source":0
		}
	],
	"images":[
		{
			"mimeType":"image/jpeg",
			"name":"Phantom_Patient_Cleaned_Retextured_u1_v1_baseColor",
			"uri":"Phantom_Patient_Cleaned_Retextured_u1_v1_baseColor.jpg"
		}
	],
	"accessors":[
		{
			"bufferView":0,
			"componentType":5126,
			"count":53306,
			"max":[
				0.8271932601928711,
				0.6287317872047424,
				1.4246920347213745
			],
			"min":[
				-1.0863579511642456,
				-1.2886759042739868,
				0.029667995870113373
			],
			"type":"VEC3"
		},
		{
			"bufferView":1,
			"componentType":5126,
			"count":53306,
			"type":"VEC3"
		},
		{
			"bufferView":2,
			"componentType":5126,
			"count":53306,
			"type":"VEC2"
		},
		{
			"bufferView":3,
			"componentType":5123,
			"count":53772,
			"type":"SCALAR"
		}
	],
	"bufferViews":[
		{
			"buffer":0,
			"byteLength":639672,
			"byteOffset":0,
			"target":34962
		},
		{
			"buffer":0,
			"byteLength":639672,
			"byteOffset":639672,
			"target":34962
		},
		{
			"buffer":0,
			"byteLength":426448,
			"byteOffset":1279344,
			"target":34962
		},
		{
			"buffer":0,
			"byteLength":107544,
			"byteOffset":1705792,
			"target":34963
		}
	],
	"samplers":[
		{
			"magFilter":9729,
			"minFilter":9987
		}
	],
	"buffers":[
		{
			"byteLength":1813336,
			"uri":"Untitled.bin"
		}
	]
}
